<?xml version="1.0" encoding="UTF-8" standalone="no"?>
<!-- Created with Inkscape (http://www.inkscape.org/) -->

<svg
   width="297mm"
   height="210mm"
   viewBox="0 0 297 210"
   version="1.1"
   id="svg1"
   sodipodi:docname="Gstein_Elefant.svg"
   inkscape:version="1.3 (0e150ed6c4, 2023-07-21)"
   xmlns:inkscape="http://www.inkscape.org/namespaces/inkscape"
   xmlns:sodipodi="http://sodipodi.sourceforge.net/DTD/sodipodi-0.dtd"
   xmlns="http://www.w3.org/2000/svg"
   xmlns:svg="http://www.w3.org/2000/svg">
  <sodipodi:namedview
     id="namedview1"
     pagecolor="#ffffff"
     bordercolor="#000000"
     borderopacity="0.25"
     inkscape:showpageshadow="2"
     inkscape:pageopacity="0.0"
     inkscape:pagecheckerboard="0"
     inkscape:deskcolor="#d1d1d1"
     inkscape:document-units="mm"
     inkscape:zoom="1.74"
     inkscape:cx="266.95402"
     inkscape:cy="222.12644"
     inkscape:window-width="3072"
     inkscape:window-height="1656"
     inkscape:window-x="0"
     inkscape:window-y="0"
     inkscape:window-maximized="1"
     inkscape:current-layer="layer1"
     showguides="false"
     showgrid="false">
    <sodipodi:guide
       position="9.9549482,218.79739"
       orientation="1,0"
       id="guide2"
       inkscape:locked="false" />
    <sodipodi:guide
       position="-4.4979168,199.9789"
       orientation="0,-1"
       id="guide3"
       inkscape:locked="false" />
  </sodipodi:namedview>
  <defs
     id="defs1" />
  <g
     inkscape:label="Layer 1"
     inkscape:groupmode="layer"
     id="layer1">
    <g
       id="g3">
      <ellipse
         style="fill:none;stroke:#ff3637;stroke-width:0.100492;stroke-dasharray:none;stroke-opacity:1"
         id="path1-9"
         cx="10.1"
         cy="10.100159"
         rx="9.9497538"
         ry="9.949913" />
      <g
         id="g2">
        <path
           style="display:inline;fill:#100f10;stroke:none;stroke-width:0.0879116"
           d="m 4.4171364,8.3991306 c 0.1089841,0.1595332 0.2562484,0.00656 0.3721592,-0.06978 C 4.6312624,8.5513311 4.5703612,8.7999786 4.4770452,9.0504089 4.0571374,10.177309 4.1856914,11.421041 3.9455658,12.588003 c -0.03513,0.170722 -0.076707,0.562361 -0.2129647,0.678542 -0.1032121,0.088 -0.3055672,0.07138 -0.4319423,0.112225 -0.3361149,0.108624 -0.5949059,0.372742 -0.68362,0.719048 -0.1525454,0.59548 0.2726681,0.975497 0.7999197,1.11287 0.8119251,0.211545 1.5424602,-0.189428 2.2096953,-0.57789 l -0.3721592,0.604758 1.1629975,0.209339 c -0.013476,0.164778 -0.2037645,0.606205 0.06978,0.628019 0.07549,-0.123287 0.247247,-0.07928 0.3721592,-0.05957 0.3370145,0.05317 0.6601197,0.152933 0.9808668,0.229062 0.1951733,0.04633 0.5564181,-0.02953 0.7636295,-0.04925 0.4695894,-0.04469 0.9888624,-0.01526 1.4421174,-0.161473 0.162343,-0.05237 0.438793,-0.04867 0.567463,-0.169856 0.0946,-0.0891 -0.01632,-0.330353 -0.02861,-0.440198 -0.04542,-0.405937 -0.125259,-0.874623 -0.0504,-1.279297 l 0.348899,0.02326 -0.20934,1.302558 0.767579,0.08631 0.271994,0.06125 -0.132435,0.294376 c 0.808942,0.192596 1.579656,0.09677 2.395775,0.04629 0.110015,-0.0068 0.185242,0.08814 0.277952,0.0806 0.06098,-0.005 0.09208,-0.06786 0.145591,-0.0897 0.08344,-0.03406 0.207679,-0.02921 0.297515,-0.03719 0.2664,-0.02366 0.555279,-0.02685 0.814099,-0.09511 0.06533,-0.01723 0.209818,-0.03109 0.241733,-0.09837 0.06127,-0.129148 -0.07364,-0.37332 -0.101833,-0.504325 -0.06527,-0.30326 -0.07174,-0.654081 -0.07635,-0.963529 -0.002,-0.131333 -0.03543,-0.283136 0.02897,-0.407049 0.101418,-0.195155 0.345977,-0.312916 0.497668,-0.464697 0.357091,-0.357302 0.806515,-0.894424 0.92171,-1.397858 0.119697,0.06399 0.15212,0.155867 0.195629,0.27912 0.167539,0.474599 -0.207069,0.885714 -0.487293,1.232776 -0.07857,0.0973 -0.154211,0.20465 -0.193187,0.324724 -0.06892,0.212345 0.07948,0.323744 0.126208,0.512635 0.05636,0.227855 -0.111325,0.763663 0.219084,0.767578 l 0.06978,-0.13956 0.02326,0.18608 0.232599,0.04652 -0.06978,-0.41868 c 0.06811,0.04791 0.360594,0.282433 0.437848,0.149036 0.04627,-0.0799 -0.136043,-0.184535 -0.181073,-0.225547 -0.145521,-0.132533 -0.471634,-0.422187 -0.507645,-0.621287 -0.04779,-0.264199 0.287994,-0.59382 0.427079,-0.790839 0.236275,-0.334689 0.316484,-0.691432 0.20103,-1.093217 -0.03355,-0.116749 -0.086,-0.254621 -0.175546,-0.339818 -0.06262,-0.05958 -0.179665,-0.08433 -0.206968,-0.174343 -0.05363,-0.176798 0.02836,-0.414761 -0.0023,-0.602317 -0.0712,-0.435922 -0.244554,-0.895166 -0.468655,-1.2753332 -0.209262,-0.3549933 -0.470122,-0.688683 -0.735399,-1.0032106 -0.103521,-0.1227413 -0.280793,-0.2288058 -0.351123,-0.373075 -0.04266,-0.087502 0.02849,-0.1913537 0.04329,-0.2791194 0.03367,-0.1997071 0.0633,-0.4528178 0.01316,-0.6512786 C 15.384376,6.5038631 14.468625,5.577301 13.48852,5.300639 12.860404,5.1233359 12.178386,5.1917373 11.557944,5.3658774 11.363657,5.4204085 11.16521,5.4770237 10.976445,5.5488536 10.872624,5.5883603 10.718206,5.6784117 10.605201,5.6687607 10.506175,5.6603036 10.409068,5.5295162 10.325167,5.4794145 10.160939,5.3813447 9.9735993,5.3399499 9.7901877,5.2942505 8.928724,5.0796028 8.1237429,5.1770578 7.3013729,5.4985644 6.7887844,5.6989614 6.2577955,6.1563097 5.9428372,6.6084548 5.7770341,6.8464775 5.6977047,7.1414674 5.5315347,7.3696617 5.2228428,7.7935733 4.8386851,8.0946856 4.417139,8.3991306 M 10.394947,5.7940158 9.7862389,6.3346478 9.1389091,6.3542464 7.6037523,6.5597287 5.7429562,7.3756925 C 6.131343,6.0144969 7.6613868,5.204371 8.9994387,5.303636 c 0.3349858,0.024851 0.6526039,0.092466 0.9768287,0.1770349 0.1686136,0.04398 0.3660996,0.1324059 0.4186796,0.3133449 m -0.37216,3.4192125 c -0.2807221,-0.00458 -0.083644,0.2632716 0.02326,0.3681221 0.272645,0.2674052 0.601289,0.4604296 0.953657,0.6060506 1.201069,0.496358 2.623503,-0.05662 3.582033,-0.7997402 0.324565,-0.2516268 0.625436,-0.48211 0.860618,-0.8257108 0.313604,0.1397751 0.541761,0.521999 0.738395,0.7909277 0.668464,0.9142353 1.069239,1.9908703 0.474335,3.0468753 -0.186561,0.331162 -0.433245,0.664484 -0.711798,0.924547 -0.144125,0.134558 -0.433308,0.278712 -0.513765,0.461286 -0.147964,0.335762 -0.03366,0.990314 0.03618,1.335671 0.02525,0.124841 0.171565,0.433315 0.10808,0.546376 -0.05617,0.100023 -0.246335,0.08057 -0.340769,0.08173 -0.287952,0.0035 -0.572714,0.08055 -0.860618,0.09295 -0.03528,-0.215961 -0.02934,-0.42293 -0.175131,-0.603843 -0.339987,-0.421889 -0.819993,-0.238029 -1.011126,0.185164 -0.108343,-0.09195 -0.168912,-0.227032 -0.281292,-0.317474 -0.233495,-0.187911 -0.575737,-0.20021 -0.858446,-0.147726 0.05353,-0.190038 0.09154,-0.726126 0.262912,-0.836712 0.107976,-0.06967 0.329186,-0.05343 0.458147,-0.09369 -0.08426,-0.14908 -0.577273,-0.04734 -0.744319,-0.04654 -0.589492,0.0028 -1.156853,0.0589 -1.744496,-0.004 -0.24814,-0.02657 -0.5758002,-0.210143 -0.8140983,-0.135523 0.1634742,0.208148 0.6300543,0.277019 0.8838773,0.27912 l 0.1163,1.697977 c -0.287577,0.06593 -0.6566791,0.250424 -0.9536573,0.186079 0.072684,-0.421882 -0.3787082,-0.92642 -0.8140983,-0.8795 -0.3041327,0.03278 -0.5128483,0.266425 -0.7210585,0.460821 -0.1315833,-0.332348 -0.4546118,-0.708224 -0.8606182,-0.583725 -0.173382,0.05317 -0.2758584,0.180756 -0.4186791,0.281346 0.071667,-0.485262 0.4148531,-0.914444 0.42173,-1.418857 0.00334,-0.244921 -0.1204105,-0.505886 -0.2264609,-0.721059 -0.052717,-0.106961 -0.1511023,-0.22562 -0.1556048,-0.3489 -0.00446,-0.122078 0.083603,-0.262681 0.1308372,-0.372158 0.032088,-0.07437 0.062033,-0.18661 0.1237119,-0.241808 0.069914,-0.06257 0.1812683,-0.0177 0.2640254,-0.01506 0.1732373,0.0055 0.3672074,-0.0242 0.5349789,-0.06634 0.2486986,-0.06246 0.502491,-0.143652 0.714418,-0.292273 0.09931,-0.06965 0.1803639,-0.217947 0.2879313,-0.26372 0.074749,-0.03181 0.1754526,0.01483 0.253688,0.01757 0.1388769,0.0049 0.2666007,-0.01951 0.3954192,-0.06877 v -0.04652 C 9.2508977,11.390252 9.0115391,11.428312 8.842666,11.308157 8.759137,11.248727 8.7310015,10.983693 8.606369,11.002422 8.530098,11.013882 8.538181,11.113677 8.552617,11.167072 8.612772,11.389574 8.7027384,11.472589 8.50021,11.662351 8.2149108,11.929668 7.7538665,12.039534 7.3711512,12.03444 7.1754235,12.03184 6.8567506,11.901636 6.7431326,12.09747 h 0.09304 L 6.626833,12.632449 h -0.04652 c 0.0026,0.347004 -0.4276735,0.753132 -0.6127459,1.027387 -0.1923098,0.284981 -0.2830612,0.680523 -0.507357,0.937666 -0.1599759,0.183399 -0.370305,0.25346 -0.591261,0.332993 C 4.4226417,15.091145 3.939067,15.235538 3.463481,15.089151 3.2712776,15.029989 3.0263131,14.934356 2.8997683,14.771354 2.6324261,14.426996 2.7609258,13.773213 3.1378594,13.556541 c 0.338437,-0.19454 0.7112426,-0.126409 0.9971271,0.112336 0.096629,0.08069 0.3106433,0.470198 0.4348137,0.36505 0.094051,-0.07964 0.00951,-0.209541 -0.047759,-0.282906 C 4.367586,13.553167 4.1373424,13.437292 3.92868,13.306983 4.2169631,12.291089 4.3485644,11.198854 4.3938791,10.14363 c 0.204191,0.106417 0.3780685,0.2565 0.6280186,0.249828 0.3485685,-0.0093 0.6921695,-0.180666 0.8727507,-0.4824285 C 6.1335385,9.5118298 6.0500631,8.8623704 5.6033071,8.6464673 5.3009625,8.5003547 5.1076496,8.6113844 4.8125581,8.6782526 l 0.2093396,-0.3488992 -0.02326,-0.04652 C 5.0592238,8.2273196 5.0996973,8.1407618 5.1690314,8.0965748 5.3067157,8.0088276 5.5806782,8.1296885 5.6943366,8.2170199 5.7674783,8.2732192 5.8865804,8.522308 5.9932875,8.4802915 6.1006148,8.4380306 5.9582498,8.2662144 5.9209416,8.2200353 5.7796285,8.045121 5.5409123,7.9760858 5.3242771,7.9571935 5.6209621,7.5586769 6.0910846,7.3169476 6.5337945,7.1126748 6.9367181,6.9267599 7.3551906,6.7236526 7.7898319,6.6239106 8.2546461,6.5172433 8.7582317,6.5096012 9.2318594,6.4913868 9.3909787,6.4852681 9.5062896,6.4320685 9.6738879,6.4452971 9.6439534,6.6000898 9.5313874,6.7256728 9.4595227,6.8639761 9.345373,7.0836566 9.2534498,7.3399434 9.2155807,7.5850346 9.2046818,7.6555714 9.122773,7.9756365 9.276477,7.956332 9.3390249,7.9484815 9.3560043,7.868023 9.3644371,7.8176154 9.3932807,7.6452132 9.41892,7.4846551 9.4681557,7.3157862 9.6123819,6.8211204 9.9937838,6.2341275 10.416142,5.934924 c 0.243113,-0.1722236 0.539312,-0.2539031 0.816163,-0.3523264 0.443642,-0.1577188 0.94328,-0.3109854 1.419773,-0.2988089 0.847367,0.021653 1.648634,0.4611147 2.197473,1.0984592 0.276453,0.3210338 0.620675,0.831008 0.625953,1.2725666 0.0096,0.8068169 -0.463854,1.2965339 -1.079846,1.7447478 -0.718691,0.5229414 -1.638442,0.9508187 -2.558595,0.8407137 -0.520012,-0.06222 -1.092132,-0.21878 -1.491328,-0.5818394 C 10.205995,9.531348 10.049299,9.4125609 10.022787,9.213231 M 6.7431315,8.5852096 C 7.0275022,8.6659081 7.1948556,8.2213372 7.4874499,8.1922314 7.9047257,8.1507213 8.0955846,8.4965771 8.4643678,8.5386903 8.4921615,8.3460539 8.1320766,8.1781937 7.9759089,8.1221105 7.5413819,7.9660656 6.9131943,8.0944966 6.7431315,8.5852096 M 5.8359933,9.2364889 C 5.6858727,9.2365056 5.4966371,9.2320845 5.377273,9.3411415 5.1246384,9.5719623 5.4145615,9.8925285 5.6499138,9.9575471 5.509437,10.252537 4.9174667,10.409363 4.658907,10.175053 4.578733,10.102398 4.5620334,9.9660068 4.5442228,9.8645076 4.4885048,9.5469795 4.5938653,9.1525719 4.8159478,8.9174901 5.0865066,8.6310951 5.472316,8.563273 5.7171808,8.9341271 c 0.061177,0.092655 0.08887,0.1968877 0.1188125,0.3023615 M 7.3711501,8.7606109 C 7.1858471,8.7818319 6.9580099,8.8361261 6.8150827,8.9635074 6.4847017,9.2579551 6.3418313,9.94813 6.675775,10.280746 6.8835764,10.48772 7.2569898,10.514955 7.5339698,10.488578 8.184606,10.426615 8.628446,9.5580705 8.1760773,9.0048945 8.0081447,8.7995382 7.6219825,8.7318849 7.3711501,8.7606109 M 8.0689486,9.3295284 C 7.6067515,9.3508918 7.5939858,9.9381045 7.9526489,10.120367 7.7125684,10.522482 6.9631072,10.501778 6.7262608,10.09411 6.5903766,9.860221 6.7079966,9.4847671 6.8105958,9.2597485 6.9645304,8.9221415 7.3303707,8.8451907 7.6735295,8.8880195 7.8956461,8.9157415 8.1202352,9.0828914 8.0689486,9.3295284 m 7.0942854,0.5582388 0.02326,0.02326 -0.02326,-0.02326 M 6.6268317,13.0046 c 0.1419036,0.201041 0.3280216,0.560366 0.2949672,0.814099 -0.033634,0.258176 -0.2101601,0.485074 -0.2484473,0.744319 -0.084506,-0.04407 -0.1470698,-0.121338 -0.2365483,-0.158423 -0.2097392,-0.08693 -0.400398,0.03702 -0.57755,0.135162 0.065492,-0.226818 0.2404376,-0.414949 0.3414509,-0.628018 C 6.3369469,13.624358 6.405038,13.234315 6.6268317,13.0046 m -0.5349789,0.814099 -0.04652,0.04652 0.04652,-0.04652 m -0.04652,0.06978 -0.02326,0.02326 0.02326,-0.02326 m -0.02326,0.04652 -0.06978,0.162819 h -0.02326 l 0.09304,-0.162819 M 12.0464,14.121078 c -0.03549,0.236948 -0.116678,0.66553 -0.255859,0.860619 -0.109436,-0.185512 -0.227158,-0.342182 -0.465199,-0.344646 -0.114236,-0.0012 -0.211925,0.04772 -0.32564,0.01901 l 0.09304,-0.488459 0.953658,-0.04652 m -6.2336668,0.18608 -0.02326,0.02326 0.02326,-0.02326 M 6.4640118,15.3306 5.5801337,15.16778 c 0.072589,-0.227797 0.3013948,-0.507738 0.5120597,-0.623621 0.1221807,-0.06721 0.3052243,-0.08151 0.3933372,0.04652 0.1563452,0.227164 0.013579,0.502277 -0.021519,0.739922 m -0.8140982,-0.744319 -0.02326,0.02326 0.02326,-0.02326 m 5.2334896,0.814099 c 9.32e-4,-0.112843 0.02276,-0.215746 0.04652,-0.32564 0.01576,-0.07289 0.03051,-0.14313 0.07886,-0.20234 0.252475,-0.309202 0.542389,-0.02934 0.612674,0.248861 0.02076,0.0822 0.07127,0.259924 -0.011,0.324903 -0.05444,0.043 -0.15063,0.0083 -0.211385,-7.91e-4 -0.169989,-0.02538 -0.343772,-0.04452 -0.515667,-0.045 m 2.186435,0.488459 c -0.420849,0.157609 -0.876639,-0.043 -1.302557,-0.04652 0.03716,-0.136418 0.146901,-0.248125 0.2326,-0.35877 0.0895,-0.115552 0.156403,-0.336731 0.286765,-0.406815 0.519053,-0.279054 0.758903,0.459184 0.783192,0.812105 M 7.7898292,16.074912 6.5570518,15.888833 c 0.1247575,-0.243643 0.2618108,-0.678826 0.5370786,-0.787734 0.5490969,-0.217249 0.8181941,0.588196 0.6956988,0.973813 m 6.4197458,-0.232599 -0.976918,0.06978 c 0.0017,-0.201594 0.09511,-0.563281 0.241682,-0.709823 0.185252,-0.185208 0.49641,-0.06781 0.619062,0.128341 0.09702,0.155158 0.09716,0.336457 0.116174,0.511702 m -2.139915,-0.721058 -0.09304,0.209339 h -0.02326 l 0.06978,-0.209339 h 0.04652 m -4.0937511,0.976918 c 0.05383,-0.332063 0.3290763,-0.964829 0.7675783,-0.869611 0.2910242,0.0632 0.5051516,0.256898 0.5809068,0.543971 0.01705,0.06461 0.068863,0.180391 0.022865,0.241825 -0.038544,0.05148 -0.1506567,0.04675 -0.2083529,0.05205 -0.2081392,0.0191 -0.4191206,0.05495 -0.6280187,0.05503 -0.1727176,6.5e-5 -0.3686668,0.0259 -0.5349788,-0.02326 m -1.2792974,-0.790839 -0.02326,0.02326 0.02326,-0.02326 m 5.2567488,0.04652 -0.02326,0.02326 0.02326,-0.02326"
           id="path4"
           sodipodi:nodetypes="ccsssssscccccsssssccccccsssssssssscsssscccccssssssscsssssssssscsssccccccssccssscssssssscscscsccsccccscscssssscssscccsssscccccsssssssssccssscccsssscssscsscssssssssssccsccccscssssccsscscccssscccccscscsccccccccccccccccccccccsscccccssssscccsscccscccsscccccccsssssccccccc"
           inkscape:label="path" />
      </g>
    </g>
  </g>
</svg>
